Actors :   Dev Anand, Waheeda Rehman, Jagdish Sethi, Chandrashekhar, Johny Walker, Asit Sen, Ulhas, Sabia Chatterjee
Director :   Shankar Mukherjee
Producer :   Alankar Chitra
Music director :   S D Burman
Release date :   1962 

Title                            : Baat Ek Raat Ki 1962 2CD DvDrip ~ Dev Anand Classic ~ [RdY]
Format                           : AVI
Format/Info                      : Audio Video Interleave
File size                        : 1.36 GB
Overall bit rate                 : 1 517 Kbps
Writing application              : VirtualDubMod 1.5.10.2 (build 2542/release)
Writing library                  : VirtualDubMod build 2542/release

Video
Format                           : MPEG-4 Visual
Format profile                   : Streaming Video@L1
Format settings, BVOP            : Yes
Format settings, QPel            : No
Format settings, GMC             : No warppoints
Format settings, Matrix          : Default
Codec ID                         : XVID
Codec ID/Hint                    : XviD
Bit rate                         : 1 315 Kbps
Width                            : 608 pixels
Height                           : 448 pixels
Display aspect ratio             : 4/3
Frame rate                       : 25.000 fps
Resolution                       : 24 bits
Colorimetry                      : 4.2.0
Scan type                        : Progressive
Bits/(Pixel*Frame)               : 0.193
Stream size                      : 606 MiB (87%)
Writing library                  : XviD 50

Audio
Format                           : AC-3
Format/Info                      : Audio Coding 3
Codec ID                         : 2000
Bit rate mode                    : Constant
Bit rate                         : 192 Kbps
Channel(s)                       : 2 channels
Channel positions                : L R
Sampling rate                    : 48.0 KHz
Stream size                      : 88.5 MiB (13%)
Alignment                        : Split accross interleaves
Interleave, duration             : 40 ms (1.00 video frame)
Interleave, preload duration     : 500 ms